<?xml version="1.0" standalone="no"?><!DOCTYPE svg PUBLIC "-//W3C//DTD SVG 1.1//EN" "http://www.w3.org/Graphics/SVG/1.1/DTD/svg11.dtd"><svg class="icon" width="200px" height="200.00px" viewBox="0 0 1024 1024" version="1.1" xmlns="http://www.w3.org/2000/svg"><path d="M886 817H776.47a10 10 0 1 1 0-20H886a54.06 54.06 0 0 0 54-54V408a54.06 54.06 0 0 0-54-54H137a54.06 54.06 0 0 0-54 54v335a54.06 54.06 0 0 0 54 54h113a10 10 0 0 1 0 20H137a74.08 74.08 0 0 1-74-74V408a74.08 74.08 0 0 1 74-74h749a74.08 74.08 0 0 1 74 74v335a74.08 74.08 0 0 1-74 74z" fill="#26263d" /><path d="M205 353a10 10 0 0 1-10-10v-68a42 42 0 0 1 42-42h11a10 10 0 0 1 0 20h-11a22 22 0 0 0-22 22v68a10 10 0 0 1-10 10zM819 353a10 10 0 0 1-10-10v-68a22 22 0 0 0-22-22h-11a10 10 0 0 1 0-20h11a42 42 0 0 1 42 42v68a10 10 0 0 1-10 10zM245 723h-8a42 42 0 0 1-42-42v-4a42 42 0 0 1 42-42h275a10 10 0 0 1 0 20H237a22 22 0 0 0-22 22v4a22 22 0 0 0 22 22h8a10 10 0 0 1 0 20z" fill="#26263d" /><path d="M787 723h-8a10 10 0 0 1 0-20h8a22 22 0 0 0 22-22v-4a22 22 0 0 0-22-22H512a10 10 0 0 1 0-20h275a42 42 0 0 1 42 42v4a42 42 0 0 1-42 42zM764.5 142v192h-505V142h505m20-20h-545v232h545V122z" fill="#26263d" /><path d="M765 690v192H260V690h505m20-20H240v232h545V670zM880 414v16h-80v-16h80m0-20h-80a20 20 0 0 0-20 20v16a20 20 0 0 0 20 20h80a20 20 0 0 0 20-20v-16a20 20 0 0 0-20-20zM740 414v16h-16v-16h16m0-20h-16a20 20 0 0 0-20 20v16a20 20 0 0 0 20 20h16a20 20 0 0 0 20-20v-16a20 20 0 0 0-20-20z" fill="#26263d" /><path d="M724 739.5H300a10 10 0 0 0 0 20h424a10 10 0 0 0 0-20zM724 812.5H300a10 10 0 0 0 0 20h424a10 10 0 0 0 0-20z" fill="#26263d" /></svg>