<?xml version="1.0" standalone="no"?><!DOCTYPE svg PUBLIC "-//W3C//DTD SVG 1.1//EN" "http://www.w3.org/Graphics/SVG/1.1/DTD/svg11.dtd"><svg t="1608105080107" class="icon" viewBox="0 0 1024 1024" version="1.1" xmlns="http://www.w3.org/2000/svg" p-id="3678" xmlns:xlink="http://www.w3.org/1999/xlink" width="32" height="32"><defs><style type="text/css"></style></defs><path d="M144 672H96a96 96 0 0 1-96-96V160a96 96 0 0 1 96-96h832a96 96 0 0 1 96 96v416a96 96 0 0 1-96 96h-48v176a96 96 0 0 1-96 96H240a96 96 0 0 1-96-96V672z m96-240a32 32 0 0 0-32 32v384a32 32 0 0 0 32 32h544a32 32 0 0 0 32-32V464a32 32 0 0 0-32-32H240z m640 176h48a32 32 0 0 0 32-32V160a32 32 0 0 0-32-32H96a32 32 0 0 0-32 32v416a32 32 0 0 0 32 32h48v-144a96 96 0 0 1 96-96h544a96 96 0 0 1 96 96v144zM160 240a32 32 0 0 1 0-64h160a32 32 0 0 1 0 64H160z" fill="#437ACF" p-id="3679"></path></svg>